<?xml version="1.0" encoding="UTF-8" standalone="no"?>
<svg
   _ngcontent-serverApp-c116=""
   viewBox="0 0 0 0"
   fill="none"
   class="cursor-pointer"
   height="24px"
   width="24px"
   version="1.1"
   id="svg6"
   sodipodi:docname="upkey.svg"
   inkscape:version="1.3 (0e150ed, 2023-07-21)"
   xmlns:inkscape="http://www.inkscape.org/namespaces/inkscape"
   xmlns:sodipodi="http://sodipodi.sourceforge.net/DTD/sodipodi-0.dtd"
   xmlns="http://www.w3.org/2000/svg"
   xmlns:svg="http://www.w3.org/2000/svg">
  <sodipodi:namedview
     id="namedview6"
     pagecolor="#ffffff"
     bordercolor="#000000"
     borderopacity="0.25"
     inkscape:showpageshadow="2"
     inkscape:pageopacity="0.0"
     inkscape:pagecheckerboard="0"
     inkscape:deskcolor="#d1d1d1"
     showguides="true"
     inkscape:zoom="1.84375"
     inkscape:cx="64"
     inkscape:cy="64"
     inkscape:window-width="1512"
     inkscape:window-height="847"
     inkscape:window-x="1920"
     inkscape:window-y="358"
     inkscape:window-maximized="0"
     inkscape:current-layer="svg6" />
  <g
     _ngcontent-serverApp-c116=""
     clip-path="url(#clip0)"
     id="g3">
    <path
       _ngcontent-serverApp-c116=""
       opacity="0.4"
       d="M23.85 16.95C23.85 20.475 19.875 23.55 11.925 23.55C5.55 23.475 0 20.175 0 16.95C0 13.425 4.35 10.65 11.925 10.65C19.275 10.575 23.85 13.425 23.85 16.95Z"
       fill="#00A6FF"
       id="path1" />
    <path
       _ngcontent-serverApp-c116=""
       opacity="0.6"
       d="M23.4001 19.05C21.8251 22.2 17.0251 23.25 9.9001 19.725C4.2751 16.95 0.825101 11.55 2.2501 8.62505C3.8251 5.47505 8.9251 4.87505 15.6001 8.17505C22.1251 11.325 24.9751 15.9 23.4001 19.05Z"
       fill="#00A6FF"
       id="path2" />
    <path
       _ngcontent-serverApp-c116=""
       opacity="0.8"
       d="M22.2751 20.4001C19.5001 22.4251 14.7751 21.0001 10.2001 14.6251C6.45014 9.45011 5.85014 3.15011 8.40014 1.27511C11.1751 -0.749892 15.9001 1.12511 20.3251 7.20011C24.6001 13.0501 25.0501 18.3751 22.2751 20.4001Z"
       fill="#00A6FF"
       id="path3" />
  </g>
  <path
     _ngcontent-serverApp-c116=""
     fill="#000"
     id="path4" />
  <path
     _ngcontent-serverApp-c116=""
     fill="#000"
     id="path5" />
  <path
     _ngcontent-serverApp-c116=""
     fill="#000"
     id="path6" />
  <defs
     _ngcontent-serverApp-c116=""
     id="defs6">
    <clipPath
       _ngcontent-serverApp-c116=""
       id="clip0">
      <rect
         _ngcontent-serverApp-c116=""
         width="24"
         height="24"
         fill="white"
         id="rect6" />
    </clipPath>
  </defs>
</svg>
