<?xml version="1.0" encoding="UTF-8" standalone="no"?>
<!-- Uploaded to: SVG Repo, www.svgrepo.com, Generator: SVG Repo Mixer Tools -->

<svg
   fill="#000000"
   width="800px"
   height="800px"
   viewBox="0 0 32 32"
   version="1.1"
   id="svg1"
   sodipodi:docname="spacex.svg"
   inkscape:version="1.3 (0e150ed, 2023-07-21)"
   xmlns:inkscape="http://www.inkscape.org/namespaces/inkscape"
   xmlns:sodipodi="http://sodipodi.sourceforge.net/DTD/sodipodi-0.dtd"
   xmlns="http://www.w3.org/2000/svg"
   xmlns:svg="http://www.w3.org/2000/svg">
  <defs
     id="defs1" />
  <sodipodi:namedview
     id="namedview1"
     pagecolor="#ffffff"
     bordercolor="#000000"
     borderopacity="0.25"
     inkscape:showpageshadow="2"
     inkscape:pageopacity="0.0"
     inkscape:pagecheckerboard="0"
     inkscape:deskcolor="#d1d1d1"
     inkscape:zoom="0.295"
     inkscape:cx="400"
     inkscape:cy="400"
     inkscape:window-width="1312"
     inkscape:window-height="449"
     inkscape:window-x="1920"
     inkscape:window-y="358"
     inkscape:window-maximized="0"
     inkscape:current-layer="svg1" />
  <path
     d="M31.937 9.287c-0.011 0-0.016-0.005-0.020-0.005-0.011 0-0.021 0.005-0.032 0.011-20.172 2.031-29.651 10.801-31.885 12.959l0.297 0.468h3.525c9.161-9.213 21.541-12.271 28.089-13.276l0.005 0.005c0.004 0 0.009-0.011 0.015-0.011 0.037-0.005 0.068-0.036 0.068-0.077 0-0.037-0.027-0.063-0.063-0.073zM0.505 14.011l-0.213 0.401 4.328 3.156c0.875-0.511 1.771-0.984 2.683-1.432l-2.901-2.125zM10.125 18.197c-0.719 0.532-1.448 1.095-2.235 1.756l3.803 2.765h3.943l0.167-0.359z"
     id="path1"
     style="fill:#ffffff" />
</svg>
